<svg width="285" height="207" viewBox="0 0 285 207" fill="none" xmlns="http://www.w3.org/2000/svg">
<path d="M78.7734 201H75.5508L71.2617 193.992L66.9375 201H63.9375L69.6211 192.117L64.3008 183.867H67.418L71.3789 190.348L75.3398 183.867H78.3633L73.0078 192.164L78.7734 201ZM85.8984 195.738V193.395H91.9219V195.738H85.8984ZM113.906 201H110.684L106.395 193.992L102.07 201H99.0703L104.754 192.117L99.4336 183.867H102.551L106.512 190.348L110.473 183.867H113.496L108.141 192.164L113.906 201ZM113.953 188.039H116.953L119.59 195.387C119.988 196.434 120.254 197.418 120.387 198.34H120.48C120.551 197.91 120.68 197.391 120.867 196.781C121.055 196.164 122.047 193.25 123.844 188.039H126.82L121.277 202.723C120.27 205.418 118.59 206.766 116.238 206.766C115.629 206.766 115.035 206.699 114.457 206.566V204.387C114.871 204.48 115.344 204.527 115.875 204.527C117.203 204.527 118.137 203.758 118.676 202.219L119.156 201L113.953 188.039ZM141.223 205.582H138.656V201H129.773V205.582H127.23V198.867H128.285C129.207 197.547 129.938 195.953 130.477 194.086C131.023 192.211 131.348 190.195 131.449 188.039H139.324V198.867H141.223V205.582ZM136.617 198.867V190.148H133.828C133.68 191.758 133.367 193.344 132.891 194.906C132.422 196.469 131.848 197.789 131.168 198.867H136.617ZM155.121 194.496C155.121 196.613 154.578 198.266 153.492 199.453C152.406 200.641 150.895 201.234 148.957 201.234C147.746 201.234 146.676 200.961 145.746 200.414C144.816 199.867 144.102 199.082 143.602 198.059C143.102 197.035 142.852 195.848 142.852 194.496C142.852 192.395 143.391 190.754 144.469 189.574C145.547 188.395 147.066 187.805 149.027 187.805C150.902 187.805 152.387 188.41 153.48 189.621C154.574 190.824 155.121 192.449 155.121 194.496ZM145.688 194.496C145.688 197.488 146.793 198.984 149.004 198.984C151.191 198.984 152.285 197.488 152.285 194.496C152.285 191.535 151.184 190.055 148.98 190.055C147.824 190.055 146.984 190.438 146.461 191.203C145.945 191.969 145.688 193.066 145.688 194.496ZM164.684 194.332V188.039H167.25V194.332L172.242 188.039H175.148L170.051 194.309L175.605 201H172.57L167.25 194.426V201H164.684V194.426L159.375 201H156.352L161.895 194.309L156.809 188.039H159.715L164.684 194.332ZM180.363 188.039V193.242H186.469V188.039H189.223V201H186.469V195.41H180.363V201H177.609V188.039H180.363ZM195.809 188.039V194.684C195.809 195.457 195.746 196.594 195.621 198.094L202.125 188.039H205.488V201H202.84V194.473C202.84 194.113 202.859 193.531 202.898 192.727C202.945 191.922 202.984 191.336 203.016 190.969L196.535 201H193.172V188.039H195.809ZM217.453 188.039H220.477L215.121 194.285L220.934 201H217.77L212.168 194.426V201H209.414V188.039H212.168V194.332L217.453 188.039Z" fill="#666666"/>
<path d="M86.6228 33.7151C90.9969 33.7151 94.5561 30.1558 94.5561 25.7817C94.5561 21.4076 90.9969 17.8484 86.6228 17.8484C82.2487 17.8484 78.6895 21.4076 78.6895 25.7817C78.6895 30.1558 82.2487 33.7151 86.6228 33.7151ZM86.6228 22.3817C88.4979 22.3817 90.0228 23.9066 90.0228 25.7817C90.0228 27.6568 88.4979 29.1817 86.6228 29.1817C84.7477 29.1817 83.2228 27.6568 83.2228 25.7817C83.2228 23.9066 84.7483 22.3817 86.6228 22.3817Z" fill="#B6B6B6"/>
<path d="M189.756 64.3149C189.756 68.689 193.315 72.2483 197.689 72.2483C202.063 72.2483 205.623 68.689 205.623 64.3149C205.623 59.9408 202.063 56.3816 197.689 56.3816C193.315 56.3816 189.756 59.9408 189.756 64.3149ZM197.689 60.9149C199.564 60.9149 201.089 62.4398 201.089 64.3149C201.089 66.19 199.564 67.7149 197.689 67.7149C195.814 67.7149 194.289 66.19 194.289 64.3149C194.289 62.4398 195.815 60.9149 197.689 60.9149Z" fill="#B6B6B6"/>
<path d="M206.756 39.6814C208.173 39.6814 209.322 38.5324 209.322 37.115C209.322 35.6976 208.173 34.5486 206.756 34.5486C205.338 34.5486 204.189 35.6976 204.189 37.115C204.189 38.5324 205.338 39.6814 206.756 39.6814Z" fill="#B6B6B6"/>
<path d="M97.9561 48.7481C99.3735 48.7481 100.523 47.5991 100.523 46.1817C100.523 44.7643 99.3735 43.6152 97.9561 43.6152C96.5387 43.6152 95.3896 44.7643 95.3896 46.1817C95.3896 47.5991 96.5387 48.7481 97.9561 48.7481Z" fill="#B6B6B6"/>
<path d="M181.723 29.2814C182.166 29.7239 182.746 29.9455 183.326 29.9455C183.906 29.9455 184.486 29.7239 184.928 29.2814L187.49 26.72L190.051 29.2814C190.494 29.7239 191.074 29.9455 191.654 29.9455C192.233 29.9455 192.814 29.7239 193.256 29.2814C194.141 28.3962 194.141 26.9614 193.256 26.0763L190.695 23.515L193.256 20.9536C194.141 20.0685 194.141 18.6337 193.256 17.7486C192.371 16.8634 190.936 16.8634 190.051 17.7486L187.49 20.3099L184.928 17.7486C184.043 16.8634 182.609 16.8634 181.723 17.7486C180.838 18.6337 180.838 20.0685 181.723 20.9536L184.285 23.515L181.723 26.0763C180.838 26.9614 180.838 28.3957 181.723 29.2814Z" fill="#B6B6B6"/>
<path d="M77.4568 76.8812C77.8994 77.3238 78.4797 77.5453 79.0594 77.5453C79.6391 77.5453 80.2193 77.3238 80.6619 76.8812L83.2232 74.3199L85.7846 76.8812C86.2271 77.3238 86.8074 77.5453 87.3871 77.5453C87.9668 77.5453 88.5471 77.3238 88.9896 76.8812C89.8748 75.9961 89.8748 74.5613 88.9896 73.6761L86.4283 71.1148L88.9896 68.5535C89.8748 67.6684 89.8748 66.2336 88.9896 65.3484C88.1045 64.4633 86.6697 64.4633 85.7846 65.3484L83.2232 67.9098L80.6619 65.3484C79.7768 64.4633 78.342 64.4633 77.4568 65.3484C76.5717 66.2336 76.5717 67.6684 77.4568 68.5535L80.0182 71.1148L77.4568 73.6761C76.5717 74.5613 76.5717 75.9955 77.4568 76.8812Z" fill="#B6B6B6"/>
<path d="M154.623 77.9149C155.875 77.9149 156.89 76.9001 156.89 75.6483C156.89 74.3964 155.875 73.3816 154.623 73.3816C153.371 73.3816 152.356 74.3964 152.356 75.6483C152.356 76.9001 153.371 77.9149 154.623 77.9149Z" fill="#B6B6B6"/>
<path d="M131.956 77.9149C133.208 77.9149 134.223 76.9001 134.223 75.6483C134.223 74.3964 133.208 73.3816 131.956 73.3816C130.704 73.3816 129.689 74.3964 129.689 75.6483C129.689 76.9001 130.704 77.9149 131.956 77.9149Z" fill="#B6B6B6"/>
<path d="M205.849 112.369C202.973 110.211 202.732 106.724 202.453 102.689C202.017 96.3981 201.474 88.5713 188.904 86.9993C182.498 86.2049 176.147 88.2568 171.012 92.7878C166.744 96.5573 163.73 101.699 162.326 107.259L153.49 103.245V101.416C153.49 101.395 153.478 101.377 153.478 101.356C162.153 97.2112 168.748 89.4881 171.424 80.1772C172.931 80.2169 174.319 79.8117 175.689 78.9578C177.792 77.6454 179.216 75.5113 179.495 73.2446C179.776 70.9734 179.072 68.696 177.569 66.9937C176.535 65.827 175.194 65.0013 173.72 64.5967C173.715 64.1984 173.699 62.75 173.694 62.5992C173.808 62.3272 173.89 52.4961 173.89 52.4961C174.415 52.4338 174.926 52.3386 175.409 52.1714C177.109 51.5849 178.406 50.3808 179.261 48.5946H179.263C182.212 42.4327 176.942 33.7032 166.932 26.9825C167.633 25.2066 167.706 23.2697 167.066 21.4541C166.36 19.4555 164.922 17.8507 163.011 16.9361C161.101 16.0175 158.95 15.9025 156.946 16.6063C155.128 17.2483 153.665 18.5188 152.722 20.1769C141.211 16.5893 131.106 17.955 128.153 24.1169C127.488 25.5052 127.345 26.9559 127.667 28.3607C117.966 32.796 112.651 41.1815 112.691 52.125L112.72 55.8678C112.742 57.986 112.798 61.9544 112.84 62.1317C112.84 62.1646 112.864 64.038 112.864 64.5916C111.5 64.9611 110.258 65.6938 109.249 66.7387C107.742 68.3039 106.953 70.3626 107.031 72.5357C107.115 74.9616 108.492 77.3037 110.71 78.8002C112.111 79.7454 113.516 80.2078 115.044 80.1835C117.415 88.845 123.164 96.1136 130.835 100.527C130.834 100.546 130.824 100.562 130.824 100.581V103.244L112.759 111.454C104.457 115.228 99.0908 123.662 99.0908 132.936V151.581C99.0908 152.834 100.105 153.847 101.357 153.847H182.957C184.21 153.847 185.224 152.834 185.224 151.581V141.144C186.34 141.285 187.47 141.381 188.624 141.381C198.636 141.381 209.252 134.901 211.809 127.234C212.843 124.127 213.445 118.067 205.849 112.369ZM158.452 20.8835C159.311 20.5826 160.232 20.6353 161.048 21.0229C162.412 21.6774 163.125 23.1241 162.934 24.5453C162.007 24.0347 161.056 23.5378 160.07 23.0657C159.093 22.5982 158.119 22.1715 157.149 21.772C157.515 21.3873 157.937 21.0643 158.452 20.8835ZM132.239 26.0742C133.26 23.9469 136.445 22.7093 140.912 22.7093C145.58 22.7093 151.65 24.0597 158.113 27.1542C170.761 33.2147 177.253 42.2859 175.171 46.6379C174.755 47.5078 174.287 47.7622 173.927 47.8886C171.289 48.7918 165.031 45.695 158.39 42.4191C156.759 41.6133 155.048 40.7678 153.259 39.911C151.504 39.0701 149.764 38.262 148.077 37.4783C140.757 34.0761 133.191 30.5565 132.117 27.5662C131.94 27.0721 131.976 26.625 132.239 26.0742ZM129.971 32.286C133.15 35.5324 139.085 38.2977 146.164 41.5889C147.838 42.3658 149.562 43.1671 151.302 44.0018C153.073 44.8495 154.768 45.6865 156.384 46.4832C161.528 49.0242 165.801 51.1282 169.356 52.057V60.6278C162.573 65.7278 154.904 67.6601 147.654 66.0752C141.155 64.6562 135.765 60.5371 132.87 54.7753C132.54 54.1202 131.913 53.664 131.19 53.5535C130.461 53.4362 129.729 53.6861 129.219 54.2131C126.295 57.2233 122.026 59.0321 117.277 59.3284C117.275 58.2348 117.262 57.0442 117.251 55.8242L117.222 52.1074C117.179 40.4261 123.995 34.8955 129.971 32.286ZM118.973 77.1405C118.843 76.5052 118.446 75.9561 117.884 75.6309C117.322 75.3079 116.647 75.2455 116.03 75.4473C115.153 75.7459 114.343 75.7861 113.245 75.0421C112.24 74.3649 111.594 73.3421 111.558 72.3748C111.525 71.4409 111.863 70.5575 112.51 69.8866C113.157 69.2179 114.024 68.8484 114.956 68.8484C115.569 68.8484 116.18 68.5872 116.607 68.1492C117.237 67.502 117.431 66.9467 117.392 63.8533C122.241 63.5813 126.74 61.9997 130.265 59.3216C133.973 64.9906 139.818 69.006 146.687 70.5042C148.67 70.9383 150.673 71.1531 152.681 71.1531C158.319 71.1514 163.972 69.4349 169.235 66.167C169.321 67.2028 169.528 67.6987 169.986 68.1622C170.411 68.594 171.016 68.8484 171.622 68.8484C172.597 68.8484 173.526 69.2666 174.17 69.9971C174.825 70.7366 175.118 71.6925 174.996 72.691C174.881 73.6118 174.243 74.5151 173.291 75.1107C172.335 75.7062 171.525 75.7969 170.5 75.4359C169.889 75.2121 169.21 75.2767 168.643 75.5906C168.074 75.9074 167.669 76.4537 167.529 77.0895C165.322 87.2232 157.832 95.5016 147.979 98.6936L146.979 99.0212C144.161 99.9352 141.281 99.9686 138.655 99.1209C128.633 95.896 121.092 87.4731 118.973 77.1405ZM137.266 103.437C138.984 103.991 140.77 104.265 142.583 104.265C144.507 104.265 146.457 103.955 148.378 103.333L148.956 103.144V103.982C148.956 107.731 145.906 110.782 142.156 110.782C138.407 110.782 135.356 107.731 135.356 103.982V102.686C135.993 102.935 136.609 103.226 137.266 103.437ZM180.689 149.315H167.089V137.982C167.089 136.729 166.075 135.715 164.822 135.715C163.57 135.715 162.556 136.729 162.556 137.982V149.315H119.489V137.982C119.489 136.729 118.475 135.715 117.222 135.715C115.97 135.715 114.956 136.729 114.956 137.982V149.315H103.622V132.937C103.622 125.436 107.946 118.622 114.635 115.581L131.559 107.889C133.159 112.21 137.286 115.315 142.156 115.315C147.026 115.315 151.153 112.21 152.752 107.889L161.548 111.886C161.485 112.649 161.422 113.414 161.422 114.182C161.422 126.421 169.55 136.791 180.689 140.195V149.315ZM207.506 125.801C205.578 131.582 196.578 136.848 188.622 136.848C176.125 136.848 165.956 126.68 165.956 114.182C165.956 107.366 168.968 100.64 174.013 96.1878C177.582 93.0377 181.847 91.3644 186.212 91.3644C186.92 91.3644 187.631 91.4086 188.341 91.497C197.211 92.6059 197.512 96.9664 197.931 103.001C198.24 107.497 198.592 112.592 203.13 115.995C207.188 119.038 208.66 122.339 207.506 125.801Z" fill="#B6B6B6"/>
<path d="M197.689 116.541C193.991 116.541 190.982 119.55 190.982 123.248C190.982 126.945 193.991 129.953 197.689 129.953C201.388 129.953 204.397 126.945 204.397 123.248C204.397 119.55 201.389 116.541 197.689 116.541ZM197.689 125.42C196.492 125.42 195.516 124.446 195.516 123.248C195.516 122.051 196.492 121.075 197.689 121.075C198.887 121.075 199.863 122.051 199.863 123.248C199.863 124.446 198.887 125.42 197.689 125.42Z" fill="#B6B6B6"/>
<path d="M184.09 94.6492C180.818 94.6492 178.157 97.3097 178.157 100.582C178.157 103.854 180.818 106.514 184.09 106.514C187.362 106.514 190.022 103.854 190.022 100.582C190.022 97.3097 187.362 94.6492 184.09 94.6492ZM184.09 101.981C183.32 101.981 182.691 101.352 182.691 100.582C182.691 99.8109 183.319 99.1825 184.09 99.1825C184.86 99.1825 185.489 99.8109 185.489 100.582C185.489 101.352 184.86 101.981 184.09 101.981Z" fill="#B6B6B6"/>
<path d="M179.822 113.048C179.822 109.777 177.161 107.116 173.889 107.116C170.618 107.116 167.957 109.776 167.957 113.048C167.957 116.32 170.618 118.981 173.889 118.981C177.161 118.981 179.822 116.32 179.822 113.048ZM173.889 114.448C173.119 114.448 172.49 113.819 172.49 113.048C172.49 112.278 173.119 111.649 173.889 111.649C174.66 111.649 175.289 112.278 175.289 113.048C175.289 113.819 174.66 114.448 173.889 114.448Z" fill="#B6B6B6"/>
<path d="M181.823 121.849C178.552 121.849 175.891 124.51 175.891 127.782C175.891 131.053 178.551 133.714 181.823 133.714C185.095 133.714 187.755 131.053 187.755 127.782C187.755 124.51 185.095 121.849 181.823 121.849ZM181.823 129.181C181.053 129.181 180.424 128.552 180.424 127.782C180.424 127.011 181.052 126.382 181.823 126.382C182.594 126.382 183.222 127.011 183.222 127.782C183.222 128.552 182.594 129.181 181.823 129.181Z" fill="#B6B6B6"/>
<path d="M92.7942 98.0604C92.3738 97.6445 91.9465 97.2217 91.5306 96.7854C91.53 96.7848 91.5294 96.7848 91.5294 96.7843C91.5289 96.7843 91.5289 96.7837 91.5289 96.7831C89.7915 94.9658 88.6338 93.31 88.6338 91.1431C88.6338 88.2633 87.1395 87.4728 86.2475 87.2586C82.7127 86.3644 78.5732 93.3015 76.4215 97.496C75.129 100.017 73.5859 103.546 73.5859 106.04C73.5859 110.439 76.0118 114.245 79.5699 116.305L78.2587 145.424C78.1521 147.776 78.9761 150.052 80.5185 151.664C81.8644 153.074 83.6307 153.848 85.4899 153.848C87.3491 153.848 89.1154 153.074 90.4613 151.664C92.0043 150.052 92.8277 147.777 92.7211 145.424L91.4099 116.305C94.968 114.244 97.3944 110.438 97.3944 106.04C97.3939 102.616 94.9498 100.194 92.7942 98.0604ZM84.3384 93.3718C84.7589 95.269 85.682 96.8472 86.7513 98.206C85.95 98.8016 85.1595 99.1155 84.3872 99.1467C83.3468 99.1422 82.218 98.6622 81.2971 97.9958C82.3948 96.0459 83.4731 94.4723 84.3384 93.3718ZM88.1923 145.627C88.2433 146.749 87.8756 147.81 87.1854 148.531C86.8442 148.89 86.2713 149.315 85.4899 149.315C84.7085 149.315 84.135 148.89 83.7944 148.531C83.1037 147.81 82.7365 146.749 82.7875 145.627L84.0404 117.798C84.5209 117.857 84.9935 117.945 85.4899 117.945C85.9863 117.945 86.4589 117.857 86.9394 117.798L88.1923 145.627ZM85.4893 113.411C81.4252 113.411 78.1181 110.104 78.1181 106.04C78.1181 105.398 78.4547 104.031 79.2855 102.062C80.9175 103.107 82.5778 103.682 84.254 103.682C84.356 103.682 84.4574 103.68 84.5617 103.676C86.4181 103.604 88.1884 102.875 89.8504 101.526C91.4886 103.152 92.8605 104.579 92.8605 106.04C92.8605 110.104 89.5535 113.411 85.4893 113.411Z" fill="#B6B6B6"/>
</svg>
