<svg width="285" height="268" viewBox="0 0 285 268" fill="none" xmlns="http://www.w3.org/2000/svg">
<path d="M78.7734 262H75.5508L71.2617 254.992L66.9375 262H63.9375L69.6211 253.117L64.3008 244.867H67.418L71.3789 251.348L75.3398 244.867H78.3633L73.0078 253.164L78.7734 262ZM85.8984 256.738V254.395H91.9219V256.738H85.8984ZM113.906 262H110.684L106.395 254.992L102.07 262H99.0703L104.754 253.117L99.4336 244.867H102.551L106.512 251.348L110.473 244.867H113.496L108.141 253.164L113.906 262ZM113.953 249.039H116.953L119.59 256.387C119.988 257.434 120.254 258.418 120.387 259.34H120.48C120.551 258.91 120.68 258.391 120.867 257.781C121.055 257.164 122.047 254.25 123.844 249.039H126.82L121.277 263.723C120.27 266.418 118.59 267.766 116.238 267.766C115.629 267.766 115.035 267.699 114.457 267.566V265.387C114.871 265.48 115.344 265.527 115.875 265.527C117.203 265.527 118.137 264.758 118.676 263.219L119.156 262L113.953 249.039ZM141.223 266.582H138.656V262H129.773V266.582H127.23V259.867H128.285C129.207 258.547 129.938 256.953 130.477 255.086C131.023 253.211 131.348 251.195 131.449 249.039H139.324V259.867H141.223V266.582ZM136.617 259.867V251.148H133.828C133.68 252.758 133.367 254.344 132.891 255.906C132.422 257.469 131.848 258.789 131.168 259.867H136.617ZM155.121 255.496C155.121 257.613 154.578 259.266 153.492 260.453C152.406 261.641 150.895 262.234 148.957 262.234C147.746 262.234 146.676 261.961 145.746 261.414C144.816 260.867 144.102 260.082 143.602 259.059C143.102 258.035 142.852 256.848 142.852 255.496C142.852 253.395 143.391 251.754 144.469 250.574C145.547 249.395 147.066 248.805 149.027 248.805C150.902 248.805 152.387 249.41 153.48 250.621C154.574 251.824 155.121 253.449 155.121 255.496ZM145.688 255.496C145.688 258.488 146.793 259.984 149.004 259.984C151.191 259.984 152.285 258.488 152.285 255.496C152.285 252.535 151.184 251.055 148.98 251.055C147.824 251.055 146.984 251.438 146.461 252.203C145.945 252.969 145.688 254.066 145.688 255.496ZM164.684 255.332V249.039H167.25V255.332L172.242 249.039H175.148L170.051 255.309L175.605 262H172.57L167.25 255.426V262H164.684V255.426L159.375 262H156.352L161.895 255.309L156.809 249.039H159.715L164.684 255.332ZM180.363 249.039V254.242H186.469V249.039H189.223V262H186.469V256.41H180.363V262H177.609V249.039H180.363ZM195.809 249.039V255.684C195.809 256.457 195.746 257.594 195.621 259.094L202.125 249.039H205.488V262H202.84V255.473C202.84 255.113 202.859 254.531 202.898 253.727C202.945 252.922 202.984 252.336 203.016 251.969L196.535 262H193.172V249.039H195.809ZM217.453 249.039H220.477L215.121 255.285L220.934 262H217.77L212.168 255.426V262H209.414V249.039H212.168V255.332L217.453 249.039Z" fill="#666666"/>
<path d="M64.735 46.8043C70.8073 46.8043 75.7483 41.8632 75.7483 35.7909C75.7483 29.7186 70.8073 24.7776 64.735 24.7776C58.6627 24.7776 53.7217 29.7186 53.7217 35.7909C53.7217 41.8632 58.6627 46.8043 64.735 46.8043ZM64.735 31.0709C67.3381 31.0709 69.455 33.1878 69.455 35.7909C69.455 38.394 67.3381 40.5109 64.735 40.5109C62.1319 40.5109 60.015 38.394 60.015 35.7909C60.015 33.1878 62.1327 31.0709 64.735 31.0709Z" fill="#B6B6B6"/>
<path d="M207.908 89.2843C207.908 95.3566 212.849 100.298 218.922 100.298C224.994 100.298 229.935 95.3566 229.935 89.2843C229.935 83.212 224.994 78.271 218.922 78.271C212.849 78.271 207.908 83.212 207.908 89.2843ZM218.922 84.5643C221.525 84.5643 223.642 86.6812 223.642 89.2843C223.642 91.8874 221.525 94.0043 218.922 94.0043C216.318 94.0043 214.202 91.8874 214.202 89.2843C214.202 86.6812 216.319 84.5643 218.922 84.5643Z" fill="#B6B6B6"/>
<path d="M231.509 55.0871C233.477 55.0871 235.072 53.4919 235.072 51.5242C235.072 49.5566 233.477 47.9614 231.509 47.9614C229.541 47.9614 227.946 49.5566 227.946 51.5242C227.946 53.4919 229.541 55.0871 231.509 55.0871Z" fill="#B6B6B6"/>
<path d="M80.4691 67.6737C82.4368 67.6737 84.0319 66.0786 84.0319 64.1109C84.0319 62.1432 82.4368 60.5481 80.4691 60.5481C78.5014 60.5481 76.9062 62.1432 76.9062 64.1109C76.9062 66.0786 78.5014 67.6737 80.4691 67.6737Z" fill="#B6B6B6"/>
<path d="M196.757 40.6494C197.371 41.2637 198.176 41.5713 198.981 41.5713C199.786 41.5713 200.592 41.2637 201.206 40.6494L204.762 37.0936L208.317 40.6494C208.932 41.2637 209.737 41.5713 210.542 41.5713C211.347 41.5713 212.152 41.2637 212.767 40.6494C213.996 39.4206 213.996 37.4287 212.767 36.2L209.211 32.6442L212.767 29.0885C213.996 27.8597 213.996 25.8679 212.767 24.6391C211.538 23.4103 209.546 23.4103 208.317 24.6391L204.762 28.1948L201.206 24.6391C199.977 23.4103 197.985 23.4103 196.757 24.6391C195.528 25.8679 195.528 27.8597 196.757 29.0885L200.312 32.6442L196.757 36.2C195.528 37.4287 195.528 39.4198 196.757 40.6494Z" fill="#B6B6B6"/>
<path d="M52.0104 106.729C52.6248 107.344 53.4304 107.651 54.2351 107.651C55.0399 107.651 55.8454 107.344 56.4598 106.729L60.0156 103.174L63.5713 106.729C64.1857 107.344 64.9912 107.651 65.796 107.651C66.6008 107.651 67.4063 107.344 68.0207 106.729C69.2495 105.501 69.2495 103.509 68.0207 102.28L64.465 98.7243L68.0207 95.1686C69.2495 93.9398 69.2495 91.948 68.0207 90.7192C66.7919 89.4904 64.8001 89.4904 63.5713 90.7192L60.0156 94.2749L56.4598 90.7192C55.2311 89.4904 53.2392 89.4904 52.0104 90.7192C50.7817 91.948 50.7817 93.9398 52.0104 95.1686L55.5662 98.7243L52.0104 102.28C50.7817 103.509 50.7817 105.5 52.0104 106.729Z" fill="#B6B6B6"/>
<path d="M159.135 108.164C160.873 108.164 162.282 106.755 162.282 105.018C162.282 103.28 160.873 101.871 159.135 101.871C157.397 101.871 155.988 103.28 155.988 105.018C155.988 106.755 157.397 108.164 159.135 108.164Z" fill="#B6B6B6"/>
<path d="M127.669 108.164C129.407 108.164 130.816 106.755 130.816 105.018C130.816 103.28 129.407 101.871 127.669 101.871C125.931 101.871 124.522 103.28 124.522 105.018C124.522 106.755 125.931 108.164 127.669 108.164Z" fill="#B6B6B6"/>
<path d="M230.249 155.994C226.257 152.998 225.922 148.158 225.535 142.556C224.929 133.823 224.177 122.957 206.726 120.775C197.833 119.672 189.016 122.521 181.888 128.811C175.963 134.044 171.778 141.181 169.829 148.901L157.562 143.327V140.789C157.562 140.76 157.547 140.735 157.546 140.706C169.589 134.952 178.745 124.23 182.46 111.305C184.552 111.36 186.479 110.797 188.381 109.612C191.3 107.79 193.276 104.827 193.663 101.681C194.053 98.5275 193.076 95.3659 190.99 93.0028C189.555 91.383 187.693 90.2369 185.646 89.6752C185.64 89.1222 185.618 87.1114 185.611 86.9022C185.768 86.5246 185.883 72.8767 185.883 72.8767C186.612 72.7902 187.321 72.658 187.991 72.4259C190.351 71.6117 192.152 69.9401 193.338 67.4605H193.342C197.435 58.9063 190.12 46.7877 176.223 37.4578C177.197 34.9924 177.298 32.3036 176.41 29.7831C175.43 27.0085 173.433 24.7807 170.781 23.511C168.129 22.2358 165.142 22.0761 162.361 23.0532C159.837 23.9445 157.805 25.7082 156.496 28.0099C140.516 23.0296 126.488 24.9254 122.389 33.4796C121.466 35.407 121.267 37.4208 121.715 39.371C108.248 45.5282 100.868 57.1693 100.925 72.3614L100.965 77.5574C100.996 80.4979 101.073 86.007 101.132 86.2532C101.131 86.2988 101.164 88.8995 101.164 89.6681C99.2712 90.181 97.5468 91.1982 96.1457 92.6488C94.0532 94.8216 92.9589 97.6795 93.0667 100.696C93.1831 104.064 95.0947 107.315 98.1738 109.393C100.119 110.705 102.07 111.347 104.19 111.313C107.482 123.337 115.463 133.428 126.112 139.555C126.111 139.581 126.097 139.603 126.097 139.63V143.327L101.019 154.724C89.4929 159.963 82.0439 171.671 82.0439 184.546V210.429C82.0439 212.169 83.4513 213.576 85.1906 213.576H198.471C200.21 213.576 201.617 212.169 201.617 210.429V195.941C203.167 196.136 204.736 196.269 206.337 196.269C220.236 196.269 234.974 187.275 238.523 176.63C239.959 172.318 240.795 163.904 230.249 155.994ZM164.451 28.9909C165.644 28.5732 166.922 28.6464 168.056 29.1844C169.948 30.093 170.939 32.1014 170.674 34.0744C169.386 33.3656 168.066 32.6757 166.697 32.0204C165.342 31.3714 163.989 30.779 162.642 30.2244C163.15 29.6903 163.737 29.2419 164.451 28.9909ZM128.062 36.1968C129.478 33.2436 133.9 31.5256 140.102 31.5256C146.582 31.5256 155.008 33.4002 163.981 37.6962C181.539 46.1096 190.552 58.7025 187.661 64.7441C187.084 65.9517 186.435 66.3049 185.934 66.4803C182.272 67.7343 173.584 63.4351 164.365 58.8874C162.101 57.7688 159.726 56.5951 157.242 55.4056C154.805 54.2382 152.39 53.1164 150.048 52.0285C139.886 47.3053 129.382 42.4193 127.892 38.2681C127.647 37.5821 127.696 36.9614 128.062 36.1968ZM124.913 44.8202C129.327 49.327 137.565 53.166 147.393 57.7349C149.716 58.8135 152.11 59.9258 154.525 61.0846C156.983 62.2614 159.337 63.4233 161.581 64.5294C168.722 68.0568 174.654 70.9777 179.588 72.267V84.1654C170.173 91.2454 159.525 93.9279 149.461 91.7276C140.439 89.7578 132.957 84.0395 128.937 76.0407C128.479 75.1313 127.609 74.498 126.605 74.3446C125.594 74.1818 124.577 74.5287 123.869 75.2603C119.81 79.4391 113.883 81.9501 107.291 82.3615C107.288 80.8433 107.27 79.1905 107.254 77.4968L107.214 72.337C107.155 56.1207 116.617 48.4428 124.913 44.8202ZM109.646 107.089C109.465 106.207 108.914 105.445 108.134 104.993C107.353 104.545 106.416 104.458 105.559 104.738C104.342 105.153 103.217 105.209 101.693 104.176C100.299 103.236 99.401 101.816 99.3514 100.473C99.305 99.1765 99.7754 97.9501 100.673 97.0187C101.571 96.0904 102.775 95.5775 104.068 95.5775C104.919 95.5775 105.767 95.2149 106.361 94.6068C107.235 93.7084 107.504 92.9375 107.45 88.6431C114.182 88.2655 120.427 86.0699 125.321 82.3521C130.468 90.2219 138.583 95.7962 148.118 97.8762C150.872 98.4788 153.653 98.7769 156.44 98.7769C164.266 98.7746 172.115 96.3917 179.421 91.855C179.54 93.2931 179.827 93.9814 180.464 94.6249C181.054 95.2243 181.892 95.5775 182.735 95.5775C184.087 95.5775 185.377 96.1581 186.272 97.1721C187.181 98.1987 187.587 99.5258 187.418 100.912C187.258 102.19 186.373 103.444 185.052 104.271C183.724 105.098 182.6 105.224 181.177 104.723C180.329 104.412 179.385 104.501 178.599 104.937C177.809 105.377 177.246 106.135 177.053 107.018C173.989 121.086 163.591 132.578 149.913 137.01L148.524 137.464C144.611 138.733 140.614 138.78 136.969 137.603C123.056 133.126 112.586 121.433 109.646 107.089ZM135.04 143.595C137.424 144.363 139.905 144.744 142.421 144.744C145.092 144.744 147.799 144.314 150.467 143.45L151.269 143.188V144.351C151.269 149.556 147.034 153.791 141.829 153.791C136.624 153.791 132.389 149.556 132.389 144.351V142.552C133.273 142.898 134.128 143.301 135.04 143.595ZM195.322 207.284H176.442V191.551C176.442 189.812 175.034 188.404 173.295 188.404C171.556 188.404 170.148 189.812 170.148 191.551V207.284H110.362V191.551C110.362 189.812 108.954 188.404 107.215 188.404C105.476 188.404 104.068 189.812 104.068 191.551V207.284H88.3349V184.548C88.3349 174.134 94.3364 164.675 103.623 160.453L127.118 149.776C129.338 155.774 135.068 160.084 141.828 160.084C148.59 160.084 154.318 155.774 156.539 149.775L168.75 155.323C168.661 156.384 168.575 157.445 168.575 158.511C168.575 175.502 179.857 189.897 195.322 194.623V207.284ZM232.55 174.641C229.874 182.667 217.379 189.978 206.335 189.978C188.985 189.978 174.868 175.861 174.868 158.511C174.868 149.05 179.05 139.711 186.054 133.531C191.008 129.158 196.929 126.835 202.988 126.835C203.972 126.835 204.958 126.896 205.945 127.019C218.258 128.559 218.676 134.612 219.257 142.989C219.687 149.231 220.176 156.304 226.475 161.027C232.108 165.253 234.151 169.835 232.55 174.641Z" fill="#B6B6B6"/>
<path d="M218.922 161.787C213.788 161.787 209.611 165.963 209.611 171.098C209.611 176.229 213.788 180.405 218.922 180.405C224.057 180.405 228.233 176.229 228.233 171.098C228.233 165.963 224.058 161.787 218.922 161.787ZM218.922 174.112C217.26 174.112 215.905 172.76 215.905 171.098C215.905 169.435 217.26 168.08 218.922 168.08C220.585 168.08 221.94 169.435 221.94 171.098C221.94 172.76 220.585 174.112 218.922 174.112Z" fill="#B6B6B6"/>
<path d="M200.042 131.396C195.501 131.396 191.807 135.089 191.807 139.631C191.807 144.173 195.5 147.867 200.042 147.867C204.584 147.867 208.278 144.173 208.278 139.631C208.278 135.089 204.584 131.396 200.042 131.396ZM200.042 141.573C198.973 141.573 198.1 140.701 198.1 139.631C198.1 138.561 198.972 137.689 200.042 137.689C201.112 137.689 201.985 138.561 201.985 139.631C201.985 140.701 201.112 141.573 200.042 141.573Z" fill="#B6B6B6"/>
<path d="M194.118 156.938C194.118 152.396 190.424 148.702 185.882 148.702C181.34 148.702 177.646 152.395 177.646 156.938C177.646 161.48 181.34 165.173 185.882 165.173C190.424 165.173 194.118 161.48 194.118 156.938ZM185.882 158.88C184.813 158.88 183.94 158.007 183.94 156.938C183.94 155.868 184.812 154.995 185.882 154.995C186.952 154.995 187.824 155.868 187.824 156.938C187.824 158.007 186.952 158.88 185.882 158.88Z" fill="#B6B6B6"/>
<path d="M196.896 169.155C192.354 169.155 188.66 172.849 188.66 177.391C188.66 181.933 192.354 185.626 196.896 185.626C201.438 185.626 205.131 181.933 205.131 177.391C205.131 172.849 201.438 169.155 196.896 169.155ZM196.896 179.333C195.827 179.333 194.953 178.461 194.953 177.391C194.953 176.321 195.826 175.449 196.896 175.449C197.966 175.449 198.838 176.321 198.838 177.391C198.838 178.461 197.966 179.333 196.896 179.333Z" fill="#B6B6B6"/>
<path d="M73.3033 136.131C72.7196 135.554 72.1265 134.967 71.5491 134.361C71.5483 134.36 71.5475 134.36 71.5475 134.359C71.5467 134.359 71.5467 134.359 71.5467 134.358C69.1348 131.835 67.5276 129.536 67.5276 126.528C67.5276 122.53 65.4532 121.433 64.215 121.136C59.3077 119.894 53.5611 129.525 50.5742 135.348C48.7798 138.847 46.6377 143.746 46.6377 147.209C46.6377 153.315 50.0054 158.599 54.9449 161.459L53.1245 201.882C52.9767 205.148 54.1205 208.308 56.2618 210.545C58.1301 212.502 60.5821 213.578 63.1632 213.578C65.7443 213.578 68.1963 212.502 70.0646 210.545C72.2067 208.308 73.3497 205.149 73.2019 201.882L71.3815 161.459C76.321 158.598 79.6895 153.314 79.6895 147.209C79.6887 142.455 76.2958 139.094 73.3033 136.131ZM61.5647 129.622C62.1484 132.256 63.4299 134.447 64.9143 136.333C63.802 137.16 62.7046 137.596 61.6323 137.639C60.188 137.633 58.621 136.966 57.3427 136.041C58.8664 133.334 60.3635 131.15 61.5647 129.622ZM66.9148 202.165C66.9856 203.722 66.4751 205.195 65.5169 206.196C65.0433 206.694 64.248 207.284 63.1632 207.284C62.0784 207.284 61.2823 206.694 60.8095 206.196C59.8505 205.195 59.3408 203.722 59.4116 202.165L61.1509 163.531C61.818 163.613 62.4741 163.735 63.1632 163.735C63.8523 163.735 64.5084 163.614 65.1755 163.531L66.9148 202.165ZM63.1624 157.442C57.5204 157.442 52.9295 152.851 52.9295 147.209C52.9295 146.317 53.3967 144.42 54.55 141.686C56.8156 143.136 59.1205 143.936 61.4475 143.936C61.5891 143.936 61.7299 143.932 61.8746 143.926C64.4518 143.827 66.9093 142.815 69.2166 140.941C71.4909 143.2 73.3954 145.181 73.3954 147.208C73.3954 152.851 68.8044 157.442 63.1624 157.442Z" fill="#B6B6B6"/>
</svg>
