<svg width="50" height="50" fill="none" xmlns="http://www.w3.org/2000/svg">
<circle cx="25" cy="25" r="25" fill="#9873FF"/>
<path d="M17.262 29.082c0 1.008-.352 1.775-1.055 2.303-.697.527-1.743.79-3.138.79-.715 0-1.324-.049-1.828-.149a6.734 6.734 0 0 1-1.415-.422V29.39c.498.234 1.058.43 1.679.588.627.159 1.178.238 1.652.238.973 0 1.46-.281 1.46-.844a.69.69 0 0 0-.194-.51c-.13-.134-.352-.284-.668-.448-.317-.17-.738-.366-1.266-.589-.756-.316-1.312-.61-1.67-.879a2.542 2.542 0 0 1-.773-.923c-.158-.351-.237-.782-.237-1.292 0-.873.337-1.546 1.01-2.021.68-.48 1.641-.72 2.883-.72a8.17 8.17 0 0 1 3.454.773l-.808 1.933c-.492-.21-.952-.384-1.38-.518a4.336 4.336 0 0 0-1.31-.202c-.79 0-1.186.213-1.186.641 0 .24.126.448.378.624.257.176.817.437 1.678.782.768.311 1.33.601 1.688.87.357.27.62.58.79.932.17.352.256.77.256 1.257zm4.667-2.426 1.169-1.494 2.75-2.988h3.024l-3.902 4.262L29.11 32h-3.094l-2.83-3.981-1.152.922V32h-2.68V18.324h2.68v6.1l-.14 2.232h.035zm14.053-4.667c1.16 0 2.069.454 2.725 1.363.656.902.984 2.141.984 3.717 0 1.623-.34 2.88-1.02 3.77-.673.892-1.593 1.337-2.759 1.337-1.154 0-2.06-.42-2.716-1.257h-.184L32.563 32h-2.047V18.324h2.68v3.182c0 .404-.035 1.052-.105 1.942h.105c.627-.972 1.556-1.459 2.786-1.459zm-.86 2.145c-.663 0-1.146.205-1.451.615-.305.404-.463 1.075-.475 2.013v.29c0 1.054.156 1.81.466 2.267.316.457.815.686 1.494.686.551 0 .988-.252 1.31-.756.328-.51.492-1.248.492-2.215 0-.967-.164-1.69-.492-2.17-.328-.487-.776-.73-1.345-.73zm6.406 6.61c0-.493.132-.865.396-1.117s.647-.378 1.151-.378c.486 0 .861.129 1.125.387.27.258.404.627.404 1.107 0 .463-.134.83-.404 1.099-.27.264-.644.395-1.125.395-.492 0-.873-.129-1.142-.386-.27-.264-.405-.633-.405-1.108z" fill="#fff"/></svg>